<svg xmlns="http://www.w3.org/2000/svg" width="26" height="51" fill="none" viewBox="0 0 26 51">
  <path fill="#F5F5FF" d="M25.104 5.707c0-.398-.165-.78-.457-1.062a1.59 1.59 0 0 0-1.103-.44h-8.22V2.891h.524a.371.371 0 0 0 .254-.1.345.345 0 0 0 .107-.243V.968a.334.334 0 0 0-.107-.243.36.36 0 0 0-.254-.1h-6.43a.37.37 0 0 0-.255.1.345.345 0 0 0-.107.243v1.58a.334.334 0 0 0 .107.244.36.36 0 0 0 .254.1h.526v1.313H1.684c-.413 0-.81.159-1.102.44a1.474 1.474 0 0 0-.457 1.062V11.2h24.98l-.002-5.493Zm-2.996 8.626L12.4 24.377l3.18-3.292L.144 37.043v13.112c0 .086.027.17.078.242.05.071.122.126.206.158a.463.463 0 0 0 .49-.107L11.204 39.81l.945-.982L24.364 50.5a.453.453 0 0 0 .485.092.444.444 0 0 0 .2-.157.42.42 0 0 0 .076-.238V38.019l-6.336-6.053.02-.02 6.313-6.526V11.217l-2.807 2.902-.207.214ZM.143 32.474l8.253-8.571V13.848H.143v18.625Z"/>
  <path fill="#F5F5FF" d="M5.077 50.625h14.697l-7.613-7.33-7.084 7.33Z"/>
</svg>
