<svg xmlns="http://www.w3.org/2000/svg" width="93" height="52" fill="none" viewBox="0 0 93 52">
  <path fill="#FEFEFE" d="M25.979 6.082c0-.398-.165-.78-.457-1.062a1.59 1.59 0 0 0-1.103-.44H16.2V3.266h.524a.37.37 0 0 0 .255-.1.345.345 0 0 0 .106-.243v-1.58a.336.336 0 0 0-.106-.243.36.36 0 0 0-.255-.1h-6.43a.37.37 0 0 0-.255.1.344.344 0 0 0-.107.243v1.58a.334.334 0 0 0 .107.244.36.36 0 0 0 .254.1h.526V4.58H2.56c-.414 0-.81.159-1.103.44A1.474 1.474 0 0 0 1 6.082v5.493h24.98l-.001-5.493Zm-2.996 8.626-9.708 10.043 3.18-3.291L1.019 37.418v13.111c0 .087.027.171.078.243.05.071.122.126.206.158a.463.463 0 0 0 .49-.108L12.08 40.185l.945-.982L25.24 50.874a.452.452 0 0 0 .485.092.444.444 0 0 0 .2-.158.42.42 0 0 0 .076-.238V38.394l-6.336-6.054.02-.019 6.313-6.526V11.592l-2.807 2.902-.207.214ZM1.018 32.85l8.253-8.573V14.224H1.018v18.625Z"/>
  <path fill="#FEFEFE" d="M5.952 51h14.696l-7.612-7.33L5.952 51ZM33.1 23.987v25.808h59.43V23.987H33.1ZM46.829 46.06l-4.38-6.97v6.97H37.57V29.482h4.88v6.23l3.965-6.23h5.49l-5.253 7.876 5.993 8.703H46.83Zm23.583-4.916a8.15 8.15 0 0 1-1.812 2.75 8.193 8.193 0 0 1-2.756 1.815c-1.068.435-2.25.653-3.546.653-1.33 0-2.53-.218-3.602-.653a8.034 8.034 0 0 1-2.757-1.827 8.174 8.174 0 0 1-1.767-2.738 9.133 9.133 0 0 1-.618-3.385 8.554 8.554 0 0 1 .662-3.372 8.367 8.367 0 0 1 1.85-2.732 8.508 8.508 0 0 1 2.781-1.821 9.02 9.02 0 0 1 3.451-.654 9.125 9.125 0 0 1 3.49.654 8.447 8.447 0 0 1 2.775 1.821 8.255 8.255 0 0 1 1.83 2.732c.438 1.07.66 2.216.65 3.372a8.969 8.969 0 0 1-.631 3.385Zm16.961 4.916h-4.87v-6.207h-4.202v6.204h-4.88V29.482h4.88v6.167h4.202v-6.167h4.87V46.06Z"/>
  <path fill="#FEFEFE" d="M64.229 34.255c-.545-.366-1.189-.549-1.93-.549-.742 0-1.382.185-1.919.553a3.74 3.74 0 0 0-1.274 1.47 4.798 4.798 0 0 0 0 4.074 3.68 3.68 0 0 0 1.274 1.47c.547.364 1.186.546 1.918.546s1.376-.182 1.931-.546a3.68 3.68 0 0 0 1.274-1.47 4.797 4.797 0 0 0 0-4.075 3.74 3.74 0 0 0-1.274-1.473ZM41.478 15.957c-.203.145-.517.218-.941.218a3.327 3.327 0 0 1-.884-.128 6.163 6.163 0 0 1-.888-.316 8.379 8.379 0 0 1-.721-.358 3.205 3.205 0 0 1-.391-.248l-1.426 2.484c.077.08.306.225.686.435.477.249.98.445 1.5.584.689.189 1.4.28 2.114.27.529 0 1.056-.066 1.568-.197a4.445 4.445 0 0 0 1.379-.607c.405-.269.74-.63.976-1.054.241-.43.362-.946.362-1.55a3.358 3.358 0 0 0-.229-1.272 3.32 3.32 0 0 0-.63-.998 4.048 4.048 0 0 0-.937-.75 6.725 6.725 0 0 0-1.163-.539 9.637 9.637 0 0 1-1.07-.442 2.022 2.022 0 0 1-.587-.41.67.67 0 0 1-.184-.46.572.572 0 0 1 .338-.543c.225-.117.516-.175.872-.175.286.002.57.053.838.152a4.518 4.518 0 0 1 1.204.636l1.384-2.39a5.56 5.56 0 0 0-.6-.346 7.088 7.088 0 0 0-1.297-.495 6.615 6.615 0 0 0-1.847-.234 4.618 4.618 0 0 0-1.884.388 3.534 3.534 0 0 0-1.43 1.11c-.364.48-.546 1.053-.546 1.72 0 .665.132 1.217.397 1.655.255.435.605.807 1.025 1.088.422.283.873.52 1.346.705.396.148.782.318 1.16.507.234.112.447.267.625.456a.768.768 0 0 1 .113.845.698.698 0 0 1-.232.259Zm8.372-1.402h1.433c.67.01 1.331-.14 1.93-.435a3.37 3.37 0 0 0 1.373-1.255c.34-.546.509-1.204.509-1.973 0-.769-.17-1.418-.509-1.947a3.154 3.154 0 0 0-1.372-1.177 4.612 4.612 0 0 0-1.93-.393h-4.337v11.268h2.897l.005-4.088Zm0-4.857h.625c.263-.004.524.04.77.129.216.078.402.22.535.405.133.185.2.431.2.738s-.067.55-.2.73a1.15 1.15 0 0 1-.534.405 2.173 2.173 0 0 1-.77.128h-.627V9.698Zm8.95 7.44a5.281 5.281 0 0 0 1.806 1.241 5.98 5.98 0 0 0 2.35.444 5.872 5.872 0 0 0 2.31-.444 5.363 5.363 0 0 0 1.813-1.241 5.668 5.668 0 0 0 1.184-1.86 6.253 6.253 0 0 0 .416-2.301 6.12 6.12 0 0 0-.425-2.292 5.555 5.555 0 0 0-3.019-3.094 6.025 6.025 0 0 0-4.539 0 5.555 5.555 0 0 0-1.821 1.237 5.719 5.719 0 0 0-1.21 1.857 6.007 6.007 0 0 0-.434 2.292 6.364 6.364 0 0 0 .408 2.3c.261.69.656 1.322 1.162 1.86Zm1.793-5.705c.212-.445.538-.826.946-1.105a2.635 2.635 0 0 1 2.835 0c.409.278.735.66.947 1.105a3.713 3.713 0 0 1 0 3.094 2.75 2.75 0 0 1-.947 1.104 2.655 2.655 0 0 1-2.835 0 2.756 2.756 0 0 1-.946-1.105 3.713 3.713 0 0 1 0-3.094v.001Zm13.134 2.847h.142l2.318 4.362h3.26l-2.652-4.592c.33-.08.64-.222.915-.418.334-.223.62-.559.859-1.007.238-.449.358-1.032.359-1.75 0-.723-.146-1.346-.438-1.87a3.054 3.054 0 0 0-1.197-1.208 3.52 3.52 0 0 0-1.742-.422h-4.737v11.267h2.91l.003-4.361Zm0-4.583h.81c.341-.004.678.088.97.265.293.176.439.511.438 1.007 0 .495-.15.835-.446 1.019-.3.178-.642.27-.991.265h-.78V9.697Zm10.338 8.944h2.901v-8.68h2.485V7.375h-7.87V9.96h2.484v8.68Z"/>
  <path stroke="#FEFEFE" stroke-width=".5" d="M25.979 6.082c0-.398-.165-.78-.457-1.062a1.59 1.59 0 0 0-1.103-.44H16.2V3.266h.524a.37.37 0 0 0 .255-.1.345.345 0 0 0 .106-.243v-1.58a.336.336 0 0 0-.106-.243.36.36 0 0 0-.255-.1h-6.43a.37.37 0 0 0-.255.1.344.344 0 0 0-.107.243v1.58a.334.334 0 0 0 .107.244.36.36 0 0 0 .254.1h.526V4.58H2.56c-.414 0-.81.159-1.103.44A1.474 1.474 0 0 0 1 6.082v5.493h24.98l-.001-5.493Zm-2.996 8.626-9.708 10.043 3.18-3.291L1.019 37.418v13.111c0 .087.027.171.078.243.05.071.122.126.206.158a.463.463 0 0 0 .49-.108L12.08 40.185l.945-.982L25.24 50.874a.452.452 0 0 0 .485.092.444.444 0 0 0 .2-.158.42.42 0 0 0 .076-.238V38.394l-6.336-6.054.02-.019 6.313-6.526V11.592l-2.807 2.902-.207.214ZM1.018 32.85l8.253-8.573V14.224H1.018v18.625Z"/>
  <path stroke="#FEFEFE" stroke-width=".5" d="M5.952 51h14.696l-7.612-7.33L5.952 51ZM33.1 23.987v25.808h59.43V23.987H33.1ZM46.829 46.06l-4.38-6.97v6.97H37.57V29.482h4.88v6.23l3.965-6.23h5.49l-5.253 7.876 5.993 8.703H46.83Zm23.583-4.916a8.15 8.15 0 0 1-1.812 2.75 8.193 8.193 0 0 1-2.756 1.815c-1.068.435-2.25.653-3.546.653-1.33 0-2.53-.218-3.602-.653a8.034 8.034 0 0 1-2.757-1.827 8.174 8.174 0 0 1-1.767-2.738 9.133 9.133 0 0 1-.618-3.385 8.554 8.554 0 0 1 .662-3.372 8.367 8.367 0 0 1 1.85-2.732 8.508 8.508 0 0 1 2.781-1.821 9.02 9.02 0 0 1 3.451-.654 9.125 9.125 0 0 1 3.49.654 8.447 8.447 0 0 1 2.775 1.821 8.255 8.255 0 0 1 1.83 2.732c.438 1.07.66 2.216.65 3.372a8.969 8.969 0 0 1-.631 3.385Zm16.961 4.916h-4.87v-6.207h-4.202v6.204h-4.88V29.482h4.88v6.167h4.202v-6.167h4.87V46.06Z"/>
  <path stroke="#FEFEFE" stroke-width=".5" d="M64.229 34.255c-.545-.366-1.189-.549-1.93-.549-.742 0-1.382.185-1.919.553a3.74 3.74 0 0 0-1.274 1.47 4.798 4.798 0 0 0 0 4.074 3.68 3.68 0 0 0 1.274 1.47c.547.364 1.186.546 1.918.546s1.376-.182 1.931-.546a3.68 3.68 0 0 0 1.274-1.47 4.797 4.797 0 0 0 0-4.075 3.74 3.74 0 0 0-1.274-1.473ZM41.478 15.957c-.203.145-.517.218-.941.218a3.327 3.327 0 0 1-.884-.128 6.163 6.163 0 0 1-.888-.316 8.379 8.379 0 0 1-.721-.358 3.205 3.205 0 0 1-.391-.248l-1.426 2.484c.077.08.306.225.686.435.477.249.98.445 1.5.584.689.189 1.4.28 2.114.27.529 0 1.056-.066 1.568-.197a4.445 4.445 0 0 0 1.379-.607c.405-.269.74-.63.976-1.054.241-.43.362-.946.362-1.55a3.358 3.358 0 0 0-.229-1.272 3.32 3.32 0 0 0-.63-.998 4.048 4.048 0 0 0-.937-.75 6.725 6.725 0 0 0-1.163-.539 9.637 9.637 0 0 1-1.07-.442 2.022 2.022 0 0 1-.587-.41.67.67 0 0 1-.184-.46.572.572 0 0 1 .338-.543c.225-.117.516-.175.872-.175.286.002.57.053.838.152a4.518 4.518 0 0 1 1.204.636l1.384-2.39a5.56 5.56 0 0 0-.6-.346 7.088 7.088 0 0 0-1.297-.495 6.615 6.615 0 0 0-1.847-.234 4.618 4.618 0 0 0-1.884.388 3.534 3.534 0 0 0-1.43 1.11c-.364.48-.546 1.053-.546 1.72 0 .665.132 1.217.397 1.655.255.435.605.807 1.025 1.088.422.283.873.52 1.346.705.396.148.782.318 1.16.507.234.112.447.267.625.456a.768.768 0 0 1 .113.845.698.698 0 0 1-.232.259Zm8.372-1.402h1.433c.67.01 1.331-.14 1.93-.435a3.37 3.37 0 0 0 1.373-1.255c.34-.546.509-1.204.509-1.973 0-.769-.17-1.418-.509-1.947a3.154 3.154 0 0 0-1.372-1.177 4.612 4.612 0 0 0-1.93-.393h-4.337v11.268h2.897l.005-4.088Zm0-4.857h.625c.263-.004.524.04.77.129.216.078.402.22.535.405.133.185.2.431.2.738s-.067.55-.2.73a1.15 1.15 0 0 1-.534.405 2.173 2.173 0 0 1-.77.128h-.627V9.698Zm8.95 7.44a5.281 5.281 0 0 0 1.806 1.241 5.98 5.98 0 0 0 2.35.444 5.872 5.872 0 0 0 2.31-.444 5.363 5.363 0 0 0 1.813-1.241 5.668 5.668 0 0 0 1.184-1.86 6.253 6.253 0 0 0 .416-2.301 6.12 6.12 0 0 0-.425-2.292 5.555 5.555 0 0 0-3.019-3.094 6.025 6.025 0 0 0-4.539 0 5.555 5.555 0 0 0-1.821 1.237 5.719 5.719 0 0 0-1.21 1.857 6.007 6.007 0 0 0-.434 2.292 6.364 6.364 0 0 0 .408 2.3c.261.69.656 1.322 1.162 1.86Zm1.793-5.705c.212-.445.538-.826.946-1.105a2.635 2.635 0 0 1 2.835 0c.409.278.735.66.947 1.105a3.713 3.713 0 0 1 0 3.094 2.75 2.75 0 0 1-.947 1.104 2.655 2.655 0 0 1-2.835 0 2.756 2.756 0 0 1-.946-1.105 3.713 3.713 0 0 1 0-3.094v.001Zm13.134 2.847h.142l2.318 4.362h3.26l-2.652-4.592c.33-.08.64-.222.915-.418.334-.223.62-.559.859-1.007.238-.449.358-1.032.359-1.75 0-.723-.146-1.346-.438-1.87a3.054 3.054 0 0 0-1.197-1.208 3.52 3.52 0 0 0-1.742-.422h-4.737v11.267h2.91l.003-4.361Zm0-4.583h.81c.341-.004.678.088.97.265.293.176.439.511.438 1.007 0 .495-.15.835-.446 1.019-.3.178-.642.27-.991.265h-.78V9.697Zm10.338 8.944h2.901v-8.68h2.485V7.375h-7.87V9.96h2.484v8.68Z"/>
</svg>
